<?xml version="1.0" encoding="iso-8859-1"?>
<!-- Generator: Adobe Illustrator 19.0.0, SVG Export Plug-In . SVG Version: 6.00 Build 0)  -->
<svg version="1.1" id="Capa_1" xmlns="http://www.w3.org/2000/svg" xmlns:xlink="http://www.w3.org/1999/xlink" x="0px" y="0px"
	 viewBox="0 0 512 512" style="enable-background:new 0 0 512 512;" xml:space="preserve">
<path style="fill:#CB7C52;" d="M482.387,362.162c-0.022-1.691-0.899-3.26-2.331-4.162c-0.811-0.512-1.738-0.772-2.669-0.772
	c-0.712,0-1.426,0.152-2.092,0.459l-30.798,14.195l-1.215-1.494l10.146-13.703c4.996-6.746,5.587-18.117,1.318-25.348
	l-59.711-101.102h-49.21c-0.302,0-0.597-0.031-0.886-0.084l21.003,91.422H166.034c-4.08-12.484-11.39-19.783-21.139-21.113
	c-10.481-1.43-17.834-5.734-22.156-9.096c-0.892-0.693-1.975-1.053-3.069-1.053c-0.624,0-1.252,0.117-1.851,0.355
	c-1.647,0.656-2.824,2.137-3.092,3.891c-1.324,8.674-1.633,21.197,4.419,31.603c5.054,8.69,13.717,14.336,25.749,16.785v83.545
	c0,5.605-4.56,10.273-10.165,10.273h-26.069c-1.303,0-2.554,0.51-3.487,1.418c-1.218,1.185-40.648,40.586-40.648,40.586
	c1.034,1.043,1.794,2.353,2.032,3.697l3.512,19.904c0.348,1.969-0.522,3.828-2.051,4.877c3.663-0.797,7.938-2.109,9.15-3.322
	l33.354-33.352c3.894-3.895,11.84-7.185,17.351-7.185h56.049c1.738,0,3.352-0.902,4.261-2.385
	c0.625-1.018,14.083-27.699,14.083-27.699h193.116c2.8,0,7.076-1.1,9.533-2.453l34.206-18.848c0.518-0.285,1.256-0.625,1.833-0.625
	c0.228,0,0.536,0.057,0.697,0.326c0.368,0.619-0.286,1.928-0.497,2.314l-24.196,44.727c-1.185,2.189-3.953,4.238-6.506,4.922
	l12.254,32.557c1.645-1.105,3.131-2.588,3.92-4.053l53.685-99.699c1.329-2.467,2.38-6.754,2.344-9.559L482.387,362.162z"/>
<g>
	<path style="fill:#FFD4B2;" d="M200.321,328.173c0,9.473,7.681,17.154,17.155,17.154s17.154-7.682,17.154-17.154
		c0-2.34-0.471-4.566-1.319-6.6H201.64C200.793,323.607,200.321,325.834,200.321,328.173z"/>
	<circle style="fill:#FFD4B2;" cx="266.74" cy="364.239" r="12.756"/>
</g>
<path style="fill:#FF9F3D;" d="M227.132,267.191c-1.546,0-2.902-1.041-3.315-2.547c-4.984-18.213-8.452-21.709-26.502-26.74
	c-1.491-0.416-2.525-1.783-2.525-3.346c0-1.561,1.034-2.932,2.525-3.346c18.05-5.029,21.517-8.529,26.502-26.742
	c0.413-1.504,1.769-2.547,3.315-2.547c1.55,0,2.907,1.043,3.319,2.547c4.982,18.213,8.451,21.713,26.501,26.742
	c1.491,0.414,2.524,1.785,2.524,3.346c0,1.563-1.033,2.93-2.524,3.346c-18.051,5.031-21.519,8.527-26.501,26.74
	C230.038,266.15,228.682,267.191,227.132,267.191z"/>
<g>
	<path style="fill:#FFBB4A;" d="M152.836,221.712c-1.162,0-2.181-0.783-2.492-1.916c-3.747-13.689-6.352-16.318-19.92-20.1
		c-1.119-0.313-1.896-1.34-1.896-2.514s0.777-2.203,1.896-2.516c13.568-3.779,16.173-6.41,19.92-20.102
		c0.311-1.131,1.33-1.914,2.492-1.914c1.165,0,2.184,0.783,2.494,1.914c3.745,13.691,6.352,16.322,19.921,20.102
		c1.119,0.313,1.895,1.342,1.895,2.516s-0.776,2.201-1.895,2.514c-13.569,3.781-16.176,6.41-19.921,20.1
		C155.02,220.929,154.001,221.712,152.836,221.712z"/>
	<path style="fill:#FFBB4A;" d="M81.533,253.941c-0.949,0-1.781-0.639-2.035-1.563c-3.059-11.184-5.188-13.328-16.267-16.418
		c-0.916-0.254-1.551-1.094-1.551-2.051c0-0.961,0.635-1.803,1.551-2.057c11.08-3.086,13.208-5.234,16.267-16.416
		c0.254-0.924,1.086-1.563,2.035-1.563c0.953,0,1.783,0.639,2.038,1.563c3.058,11.182,5.186,13.33,16.268,16.416
		c0.914,0.254,1.549,1.096,1.549,2.057c0,0.957-0.635,1.797-1.549,2.051c-11.082,3.09-13.21,5.234-16.268,16.418
		C83.316,253.302,82.485,253.941,81.533,253.941z"/>
</g>
<path style="fill:#FF9F3D;" d="M47.867,188.968c-0.887,0-1.663-0.596-1.899-1.459c-2.854-10.432-4.842-12.434-15.178-15.316
	c-0.854-0.238-1.447-1.02-1.447-1.914s0.593-1.68,1.447-1.918c10.336-2.881,12.323-4.885,15.178-15.314
	c0.236-0.863,1.012-1.461,1.899-1.461c0.888,0,1.664,0.598,1.901,1.461c2.853,10.43,4.838,12.434,15.177,15.314
	c0.854,0.238,1.446,1.023,1.446,1.918s-0.592,1.676-1.446,1.914c-10.338,2.883-12.324,4.885-15.177,15.316
	C49.531,188.373,48.754,188.968,47.867,188.968z"/>
<circle style="fill:#FFD4B2;" cx="197.68" cy="388.439" r="14.956"/>
<g>
	<path style="fill:#775436;" d="M355.323,105.703c14.503,7.252,21.069,31.439,23.26,45.596c4.968,0.076,10.114,0.486,15.315,1.359
		c-1.519-12.014-8.018-48.445-31.868-60.371l-1.16-0.58c-26.793-13.389-49.478-25.988-68.022-37.756l-1.471-20.592
		c-0.295-4.133-3.887-7.252-8.015-6.947c-4.132,0.295-7.242,3.883-6.947,8.016l0.644,9.01
		C256.192,28.764,242.424,15.534,235.9,3.846c-2.019-3.617-6.589-4.912-10.204-2.895c-3.617,2.02-4.913,6.588-2.894,10.205
		c4.02,7.201,10.256,14.813,18.645,22.791l-11.517,3.291c-3.982,1.139-6.289,5.289-5.151,9.271c0.941,3.295,3.944,5.441,7.207,5.441
		c0.682,0,1.376-0.094,2.064-0.291l20.945-5.984c7.395,5.889,15.866,11.953,25.387,18.176c0.732,0.725,1.608,1.299,2.581,1.674
		c1.489,0.959,2.994,1.92,4.532,2.885c26.502,16.643,53.63,30.199,66.667,36.715L355.323,105.703z"/>
	<path style="fill:#775436;" d="M346.337,133.689l5.746,20.109c4.483-0.885,9.551-1.654,15-2.102l-6.323-22.129
		c-2.13-7.455-9.05-15.516-16.097-18.75L309.45,94.656c-6.477-2.975-16.653-4.275-23.67-3.012
		c-0.275,0.051-26.714,4.734-56.881,5.889l-20.334-22.875c-2.752-3.096-7.492-3.377-10.588-0.623
		c-3.096,2.752-3.375,7.492-0.623,10.588l11.62,13.072c-31.267-0.787-52.607-6.813-60.789-17.369
		c-2.538-3.275-7.249-3.871-10.522-1.334c-3.274,2.537-3.871,7.248-1.334,10.523c12.855,16.586,42.717,24.369,88.778,23.15
		c8.261-0.219,16.279-0.707,23.676-1.32l-4.052,4.813c-2.668,3.17-2.263,7.9,0.906,10.568c1.407,1.186,3.121,1.764,4.827,1.764
		c2.136,0,4.258-0.908,5.741-2.67l14.076-16.717c0.004-0.004,0.008-0.01,0.012-0.016c10.638-1.35,17.553-2.574,18.135-2.68
		c4.018-0.717,11.055,0.176,14.765,1.879l35.213,16.164C341.479,125.861,345.408,130.437,346.337,133.689z"/>
</g>
<path style="fill:#CB7C52;" d="M443.369,169.685c0-1.043,0.144-2.051,0.388-3.018l-21.793-4.273
	c-29.347-17.906-64.568-11.512-81.004-6.936c0.792,3.029,1.155,6.203,1.007,9.443c-0.042,0.865-0.29,1.695-0.709,2.42
	c-0.422,0.73-1.014,1.357-1.744,1.826c-2.915,1.865-6.054,3.193-9.29,4.012l10.555,41.213c0.721-0.391,1.533-0.607,2.374-0.607
	h45.06l12.501-11.539c2.051-1.895,6.01-3.314,8.797-3.158l37.708,2.123c2.787,0.158,5.351-1.98,5.697-4.75l1.811-14.488
	C448.374,181.462,443.369,176.164,443.369,169.685z"/>
<path style="opacity:0.1;fill:#1E004C;enable-background:new    ;" d="M353.208,158.478c0,0,14.179-5.705,33.424-7.469
	c-18.499-1.834-35.606,1.65-45.672,4.451c0.791,3.029,1.154,6.201,1.007,9.441c-0.042,0.865-0.29,1.695-0.709,2.42
	c-0.422,0.73-1.014,1.357-1.744,1.826c-2.915,1.865-6.054,3.193-9.29,4.012l10.555,41.213c0.682-0.369,22.694,96.25,25.022,106.712
	c0.122,0.55,0.582,0.956,1.142,1.015l7.323,0.771c5.276,0.555,9.544-4.227,8.393-9.406l-32.901-148.175
	C349.066,162.585,350.619,159.519,353.208,158.478z"/>
<path style="fill:#FFD4B2;" d="M342.98,168.628c-0.422,0.73-1.014,1.355-1.744,1.824c-9.943,6.363-22.463,6.654-32.674,0.758
	c-10.211-5.895-16.219-16.881-15.679-28.676c0.038-0.865,0.288-1.691,0.707-2.42c0.422-0.729,1.014-1.357,1.744-1.824
	c9.942-6.363,22.463-6.654,32.674-0.76c10.21,5.896,16.219,16.883,15.682,28.676C343.647,167.072,343.398,167.902,342.98,168.628z"
	/>
<path style="opacity:0.1;fill:#1E004C;enable-background:new    ;" d="M318.84,171.773c-10.211-5.895-16.219-16.881-15.679-28.676
	c0.038-0.865,0.288-1.691,0.707-2.42c0.422-0.729,1.014-1.357,1.744-1.824c4.166-2.666,8.787-4.252,13.499-4.777
	c-8.042-1.797-16.583-0.389-23.777,4.215c-0.73,0.467-1.322,1.096-1.744,1.824c-0.419,0.729-0.669,1.555-0.707,2.42
	c-0.539,11.795,5.468,22.781,15.679,28.676c5.933,3.426,12.644,4.748,19.177,4.02C324.666,174.543,321.663,173.404,318.84,171.773z"
	/>
<path style="fill:#775436;" d="M378.031,183.98c-4.142,0-7.5-3.357-7.5-7.5v-5.242c0-4.143,3.358-7.5,7.5-7.5s7.5,3.357,7.5,7.5
	v5.242C385.531,180.623,382.173,183.98,378.031,183.98z"/>
<path style="fill:#AB5436;" d="M412.568,462.816c-1.019,0.539-2.079,0.922-3.067,1.049l-17.191,2.221
	c-2.772,0.357-5.606,2.865-6.298,5.574l-8.042,31.498c-0.692,2.709,0.967,4.389,3.684,3.734l37.626-9.057
	c1.673-0.404,3.567-1.525,5.086-2.902L412.568,462.816z"/>
<g style="opacity:0.1;">
	<path style="fill:#1E004C;" d="M388.604,501.341l8.042-31.498c0.506-1.979,2.16-3.844,4.094-4.848l-8.431,1.09
		c-2.772,0.357-5.606,2.865-6.298,5.574l-8.042,31.498c-0.692,2.709,0.967,4.389,3.684,3.734l8.173-1.967
		C388.687,504.375,388.162,503.074,388.604,501.341z"/>
</g>
<path style="fill:#775436;" d="M466.887,171.136c0,6.803-5.513,12.314-12.315,12.314c-6.803,0-12.316-5.512-12.316-12.314
	c0-6.805,5.513-12.318,12.316-12.318C461.374,158.818,466.887,164.332,466.887,171.136z"/>
<path style="fill:#FFB889;" d="M312.411,152.765c-1.885,3.689-0.423,8.207,3.265,10.092l20.212,10.33
	c1.841-0.734,3.635-1.637,5.348-2.734c0.729-0.469,1.321-1.094,1.744-1.824c0.418-0.727,0.667-1.557,0.709-2.422
	c0.093-2.045-0.023-4.063-0.311-6.037l-20.876-10.67C318.815,147.617,314.296,149.078,312.411,152.765z"/>
<path style="fill:#AB5436;" d="M71.872,502.371c0.486,2.752-1.382,5.32-4.15,5.707l-27.763,3.873
	c-2.769,0.389-5.033-1.584-5.033-4.379v-30.305c0-2.795,2.256-4.715,5.016-4.268l22.518,3.65c2.758,0.449,5.413,3.066,5.899,5.816
	L71.872,502.371z"/>
<path style="opacity:0.1;fill:#1E004C;enable-background:new    ;" d="M45,507.572v-30.305c0-1.332,0.523-2.455,1.358-3.229
	l-6.416-1.039c-2.76-0.447-5.016,1.473-5.016,4.268v30.305c0,2.795,2.264,4.767,5.033,4.379l6.623-0.924
	C45.614,510.234,45,509.019,45,507.572z"/>
<path style="fill:#289E48;" d="M345.825,232.718c-2.275,0-4.264-1.535-4.838-3.736l-2.67-10.236
	c-0.391-1.498-0.065-3.094,0.881-4.318c0.947-1.227,2.408-1.943,3.957-1.943h48.563c1.863,0,3.571,1.035,4.433,2.688l5.34,10.234
	c0.809,1.551,0.749,3.41-0.157,4.904c-0.906,1.496-2.528,2.408-4.276,2.408h-51.233V232.718z"/>
<path style="opacity:0.1;fill:#1E004C;enable-background:new    ;" d="M351.93,228.982l-2.67-10.236
	c-0.391-1.498-0.066-3.094,0.881-4.318c0.947-1.227,2.408-1.943,3.957-1.943h-10.943c-1.549,0-3.01,0.717-3.957,1.943
	c-0.947,1.225-1.272,2.82-0.881,4.318l2.67,10.236c0.574,2.201,2.563,3.736,4.838,3.736h10.943
	C354.493,232.718,352.504,231.183,351.93,228.982z"/>
<path style="fill:#FED456;" d="M421.581,237.998c0,9.23-7.484,16.715-16.717,16.715c-9.231,0-16.714-7.484-16.714-16.715
	c0-9.234,7.483-16.717,16.714-16.717C414.097,221.281,421.581,228.763,421.581,237.998z"/>
<path style="opacity:0.1;fill:#1E004C;enable-background:new    ;" d="M399,237.998c0-7.332,4.725-13.545,11.29-15.799
	c-1.704-0.586-3.524-0.918-5.426-0.918c-9.231,0-16.714,7.482-16.714,16.717c0,9.23,7.483,16.715,16.714,16.715
	c1.902,0,3.723-0.332,5.426-0.918C403.725,251.541,399,245.328,399,237.998z"/>
<g>
</g>
<g>
</g>
<g>
</g>
<g>
</g>
<g>
</g>
<g>
</g>
<g>
</g>
<g>
</g>
<g>
</g>
<g>
</g>
<g>
</g>
<g>
</g>
<g>
</g>
<g>
</g>
<g>
</g>
</svg>
