<svg height="511pt" viewBox="-67 1 511 511.99975" width="511pt" xmlns="http://www.w3.org/2000/svg"><path d="m171.71875 406.785156c0 17.070313-13.835938 30.90625-30.902344 30.90625-17.070312 0-30.90625-13.835937-30.90625-30.90625 0-17.066406 13.835938-30.90625 30.90625-30.90625 17.066406 0 30.902344 13.839844 30.902344 30.90625zm0 0" fill="#f54558"/><path d="m140.816406 375.878906c-5.632812 0-10.90625 1.515625-15.453125 4.148438 9.234375 5.34375 15.453125 15.320312 15.453125 26.757812 0 11.441406-6.21875 21.417969-15.453125 26.761719 4.546875 2.632813 9.820313 4.144531 15.453125 4.144531 17.066406 0 30.902344-13.835937 30.902344-30.902344 0-17.070312-13.835938-30.910156-30.902344-30.910156zm0 0" fill="#e64152"/><path d="m158.59375 339.15625h61.8125v165.34375h-61.8125zm0 0" fill="#ba8068"/><path d="m189.5 339.15625h30.90625v165.34375h-30.90625zm0 0" fill="#ab725c"/><path d="m1.769531 331.324219c94.816407-39.035157 164.660157-162.003907 182.988281-196.988281 2.003907-3.824219 7.496094-3.824219 9.5 0 18.324219 34.984374 88.15625 157.953124 182.96875 196.988281 1.570313.644531 1.722657 2.800781.257813 3.660156-16.996094 9.96875-93.214844 51.335937-187.984375 51.335937s-170.988281-41.367187-187.988281-51.339843c-1.4609378-.855469-1.308594-3.011719.257812-3.65625zm0 0" fill="#4b9467"/><path d="m377.230469 331.320312c-94.816407-39.03125-164.644531-162-182.972657-196.984374-2.003906-3.828126-7.496093-3.828126-9.5 0-2.574218 4.914062-6.164062 11.566406-10.699218 19.476562 27.738281 48.398438 90.777344 143.960938 172.269531 177.507812 1.570313.648438 1.722656 2.800782.261719 3.660157-16.066406 9.425781-85.023438 46.878906-172.539063 50.96875 5.089844.238281 10.242188.367187 15.449219.367187 94.769531 0 170.988281-41.363281 187.988281-51.335937 1.460938-.855469 1.308594-3.011719-.257812-3.660157zm0 0" fill="#45875f"/><path d="m40.902344 224.359375c75.050781-31.367187 130.292968-128.511719 144.824218-156.214844 1.601563-3.046875 5.960938-3.046875 7.558594 0 14.53125 27.703125 69.765625 124.847657 144.816406 156.214844 1.566407.65625 1.710938 2.808594.242188 3.660156-14.875 8.613281-74.730469 40.363281-148.84375 40.363281-74.109375 0-133.96875-31.75-148.84375-40.363281-1.46875-.851562-1.320312-3.003906.246094-3.660156zm0 0" fill="#509e6e"/><path d="m338.097656 224.359375c-75.046875-31.367187-130.28125-128.511719-144.8125-156.210937-1.597656-3.046876-5.960937-3.050782-7.558594 0-2.613281 4.976562-6.546874 12.210937-11.671874 20.894531 23.367187 39.617187 71.589843 109.589843 133.144531 135.316406 1.566406.65625 1.710937 2.808594.242187 3.660156-13.824218 8.007813-66.515625 35.996094-133.390625 39.902344 5.070313.300781 10.222657.460937 15.449219.460937 74.113281 0 133.96875-31.75 148.84375-40.363281 1.46875-.851562 1.324219-3.003906-.246094-3.660156zm0 0" fill="#4b9467"/><path d="m83.957031 119.566406c53.300781-24.132812 92.492188-97.027344 102.84375-117.886718 1.109375-2.238282 4.300781-2.238282 5.410157 0 10.347656 20.859374 49.53125 93.753906 102.832031 117.886718 1.507812.683594 1.636719 2.765625.222656 3.621094-11.839844 7.132812-53.929687 30.078125-105.765625 30.078125s-93.925781-22.945313-105.765625-30.078125c-1.414063-.855469-1.285156-2.9375.222656-3.621094zm0 0" fill="#5aa778"/><path d="m295.042969 119.566406c-53.300781-24.132812-92.484375-97.027344-102.832031-117.886718-1.109376-2.238282-4.300782-2.238282-5.410157 0-2.558593 5.15625-6.882812 13.496093-12.746093 23.492187 17.84375 30.433594 49.964843 76.230469 90.089843 94.394531 1.507813.679688 1.636719 2.765625.21875 3.617188-10.632812 6.414062-45.703125 25.578125-90.3125 29.402344 5.039063.433593 10.191407.679687 15.449219.679687 51.835938 0 93.929688-22.945313 105.765625-30.082031 1.414063-.851563 1.285156-2.933594-.222656-3.617188zm0 0" fill="#509e6e"/><path d="m158.59375 317.8125c0 17.066406-13.835938 30.902344-30.90625 30.902344-17.066406 0-30.902344-13.835938-30.902344-30.902344 0-17.070312 13.835938-30.90625 30.902344-30.90625 17.070312 0 30.90625 13.835938 30.90625 30.90625zm0 0" fill="#ffd659"/><path d="m127.6875 286.90625c-5.628906 0-10.90625 1.511719-15.453125 4.144531 9.238281 5.34375 15.453125 15.320313 15.453125 26.761719 0 11.433594-6.214844 21.414062-15.453125 26.757812 4.546875 2.632813 9.824219 4.144532 15.453125 4.144532 17.070312 0 30.90625-13.835938 30.90625-30.902344 0-17.070312-13.835938-30.90625-30.90625-30.90625zm0 0" fill="#ffbd54"/><path d="m314.152344 396.105469c0 17.066406-13.839844 30.902343-30.90625 30.902343-17.070313 0-30.90625-13.835937-30.90625-30.902343 0-17.070313 13.835937-30.90625 30.90625-30.90625 17.066406 0 30.90625 13.835937 30.90625 30.90625zm0 0" fill="#f54558"/><path d="m283.246094 365.199219c-5.632813 0-10.90625 1.511719-15.453125 4.144531 9.234375 5.34375 15.453125 15.324219 15.453125 26.761719s-6.21875 21.414062-15.453125 26.761719c4.546875 2.628906 9.820312 4.144531 15.453125 4.144531 17.070312 0 30.90625-13.839844 30.90625-30.90625 0-17.070313-13.835938-30.90625-30.90625-30.90625zm0 0" fill="#e64152"/><path d="m224.527344 216.851562c0 17.070313-13.839844 30.90625-30.90625 30.90625-17.070313 0-30.90625-13.835937-30.90625-30.90625 0-17.066406 13.835937-30.902343 30.90625-30.902343 17.066406 0 30.90625 13.835937 30.90625 30.902343zm0 0" fill="#71f6fc"/><path d="m193.621094 185.949219c-5.632813 0-10.90625 1.511719-15.453125 4.144531 9.234375 5.34375 15.453125 15.320312 15.453125 26.761719 0 11.4375-6.21875 21.414062-15.453125 26.757812 4.546875 2.632813 9.820312 4.144531 15.453125 4.144531 17.070312 0 30.90625-13.835937 30.90625-30.902343 0-17.070313-13.839844-30.90625-30.90625-30.90625zm0 0" fill="#3be3eb"/><path d="m162.140625 68.546875c0 17.070313-13.835937 30.90625-30.90625 30.90625-17.066406 0-30.90625-13.835937-30.90625-30.90625 0-17.066406 13.839844-30.902344 30.90625-30.902344 17.070313 0 30.90625 13.835938 30.90625 30.902344zm0 0" fill="#f54558"/><path d="m131.234375 37.644531c-5.628906 0-10.90625 1.511719-15.453125 4.144531 9.234375 5.34375 15.453125 15.320313 15.453125 26.757813 0 11.441406-6.21875 21.417969-15.453125 26.761719 4.546875 2.632812 9.820312 4.144531 15.453125 4.144531 17.070313 0 30.90625-13.835937 30.90625-30.902344 0-17.070312-13.835937-30.90625-30.90625-30.90625zm0 0" fill="#e64152"/><path d="m308 497h-236.996094c-4.144531 0-7.503906 3.359375-7.503906 7.5s3.359375 7.5 7.503906 7.5h236.996094c4.144531 0 7.5-3.359375 7.5-7.5s-3.359375-7.5-7.5-7.5zm0 0" fill="#704a3c"/></svg>